<svg width="2077" height="337" viewBox="0 0 2077 337" fill="none" xmlns="http://www.w3.org/2000/svg">
<path d="M1602.69 131.61C1602.69 121.335 1603.57 108.5 1606.07 104.5C1607.2 102.689 1607.79 101.99 1608.07 100.5C1608.4 98.7111 1609.68 97.7591 1610.07 96C1610.2 95.429 1612.72 90.8795 1613.07 89.5C1613.54 87.6428 1614.07 86 1613.07 82.5C1611.07 79 1610.43 78.6875 1611.07 76.8214C1613.33 70.2249 1616.05 63.9638 1619.25 58.038C1624.82 47.5684 1631.82 38.3506 1640.24 30.3846C1648.78 22.3048 1658.79 15.7044 1670.28 10.5834C1678.48 6.9418 1686.84 4.2675 1695.38 2.5605C1703.91 0.8535 1712.79 0 1722.01 0C1727.81 0 1733.56 0.2276 1739.25 0.6828C1745.05 1.138 1750.57 2.0484 1755.81 3.414C1761.15 4.6658 1766.16 6.4866 1770.83 8.8764C1775.49 11.1524 1779.7 14.1681 1783.46 17.9235C1785.05 19.2891 1786.59 19.9719 1788.07 19.9719C1788.64 19.9719 1789.26 19.5736 1789.95 18.777C1790.63 17.9804 1791.25 17.07 1791.82 16.0458C1792.39 14.9078 1792.9 13.7698 1793.36 12.6318C1793.93 11.4938 1794.38 10.5834 1794.73 9.9006C1795.64 7.966 1796.89 6.9987 1798.48 6.9987C1799.85 6.9987 1800.87 7.3401 1801.55 8.0229C1802.24 8.7057 1802.69 9.5592 1802.92 10.5834V19.9719C1802.92 21.1984 1802.91 22.4593 1802.88 23.7546C1802.86 25.3438 1800.13 25.8072 1800.07 27.5C1799.99 29.6824 1798.72 31.8176 1798.57 34C1798.52 34.7764 1798.63 38.7236 1798.57 39.5C1798.45 41 1797.57 44 1799.07 46.5C1799.77 47.6685 1800.62 48.7067 1800.57 50C1800.46 52.6174 1801.07 57.0654 1801.07 59L1801.72 80.5704C1801.72 82.7326 1801.04 83.8137 1799.68 83.8137C1798.99 83.8137 1798.25 83.1309 1797.46 81.7653C1796.66 80.3997 1798.25 75.8208 1797.46 74C1796.66 72.0654 1793.53 73.1734 1792.85 71.3526C1792.16 69.418 1791.6 67.9386 1791.14 66.9144C1789.21 61.452 1786.76 56.1603 1783.8 51.0393C1782.48 48.6072 1782.61 45.2356 1781.19 43C1780.05 41.2128 1778.89 39.1617 1777.69 37.5C1777.16 36.7665 1775.12 37.4096 1774.58 36.7005C1773.64 35.4169 1772.68 34.1834 1771.71 33C1769.43 30.1968 1767.08 27.6749 1764.68 25.4343C1761.27 22.1341 1758.08 19.6305 1755.12 17.9235C1749.21 14.5095 1743.29 12.1766 1737.37 10.9248C1731.45 9.673 1726.33 9.0471 1722.01 9.0471C1717.23 9.0471 1713.07 9.3885 1709.55 10.0713C1706.13 10.7541 1703.06 11.6645 1700.33 12.8025C1697.71 13.9405 1695.43 15.1923 1693.5 16.5579C1691.57 17.8097 1689.86 19.0615 1688.38 20.3133C1683.69 24.2125 1683.35 20.1885 1679.57 24.5C1675.67 27 1676.27 27.9606 1675.67 28.6776C1675.02 29.4708 1670.91 31.1933 1670.28 32C1669.65 32.817 1668.17 35.1691 1667.57 36C1667.41 36.2162 1665.23 38.7829 1665.07 39C1664.54 39.737 1664.59 42.7605 1664.07 43.5C1663.4 44.4605 1662.21 47.0354 1661.57 48C1658.01 53.4029 1659.48 56.2591 1656.97 61.7934C1653.67 69.0766 1651.11 76.1891 1649.29 83.1309C1647.47 90.0727 1646.1 96.3886 1645.19 102.079C1644.4 107.769 1643.88 112.662 1643.66 116.759C1643.54 120.742 1639.57 125.634 1639.57 127C1639.57 128.935 1640.96 132.72 1641.07 137.5C1641.3 142.28 1644.4 145.209 1645.19 151.582C1646.1 157.954 1647.52 164.896 1649.46 172.407C1651.39 179.804 1654.13 187.144 1657.65 194.427C1661.29 201.711 1665.85 208.652 1671.31 215.253C1673.51 217.81 1674.5 222.27 1677.07 224.545C1677.86 225.239 1680.05 225.832 1680.87 226.5C1682.38 227.73 1683.94 228.359 1685.57 229.5C1687.5 230.857 1689.52 230.751 1691.62 231.981C1692.27 232.377 1692.92 232.759 1693.57 233.129C1699.1 236.263 1704.77 238.441 1710.57 239.663C1717.17 240.915 1723.94 241.541 1730.88 241.541C1733.96 241.541 1736.97 241.256 1739.93 240.687C1742.89 240.118 1745.45 239.322 1747.61 238.297C1749.89 237.159 1751.71 235.851 1753.07 234.371C1754.44 232.778 1755.12 231.014 1755.12 229.079C1755.12 229.079 1755.12 225 1755.12 221.54C1755.12 219.526 1756.87 218.89 1757.57 217C1758.73 213.864 1758.57 208.5 1758.57 208.5C1758.57 208.5 1758.34 203.312 1758.57 200C1758.84 196.06 1760.26 193.944 1760.07 190C1759.79 184.208 1755.91 181.745 1755.12 176C1754.59 172.131 1755.12 166 1755.12 166V157.898C1755.12 155.963 1754.33 154.484 1752.73 153.459C1751.14 152.435 1749.09 151.639 1746.59 151.07C1744.2 150.501 1741.58 150.102 1738.74 149.875C1735.89 149.647 1733.22 149.306 1730.71 148.85C1728.32 148.395 1726.33 147.769 1724.74 146.973C1723.14 146.176 1722.35 144.981 1722.35 143.388C1722.35 141.681 1723.49 140.486 1725.76 139.803C1728.15 139.121 1730.71 138.779 1733.44 138.779C1734.92 138.779 1737.09 139.007 1739.93 139.462C1742.78 139.803 1746.93 140.315 1752.39 140.998C1757.85 141.567 1764.91 142.193 1773.56 142.876C1775.31 142.99 1777.14 143.101 1779.07 143.21C1780.52 143.292 1782.02 145.698 1783.57 145.778C1785.65 145.884 1787.81 145.676 1790.07 145.778C1792.77 145.9 1796.61 146.384 1799.57 146.5C1801.2 146.563 1802.07 145.778 1803.57 144.309C1804.54 144.344 1805.51 144.378 1806.5 144.412C1807.41 144.412 1808.78 144.526 1810.6 144.754C1812.53 144.981 1814.41 145.323 1816.23 145.778C1818.05 146.233 1819.65 146.859 1821.01 147.656C1822.38 148.338 1823.06 149.192 1823.06 150.216C1823.06 151.582 1821.81 152.72 1819.31 153.63C1816.8 154.427 1813.96 155.109 1810.77 155.678C1807.58 156.134 1804.45 156.532 1801.38 156.873C1798.42 157.101 1796.38 157.329 1795.24 157.556C1793.99 158.808 1793.19 159.718 1792.85 160.287C1792.51 160.856 1792.34 161.653 1792.34 162.677L1789.07 176L1792.34 191.5V202.5V216V226.519C1792.34 227.998 1793.42 228.738 1795.58 228.738C1797.51 228.738 1799.33 228.454 1801.04 227.885C1802.75 227.316 1804.4 226.747 1805.99 226.178C1807.7 225.495 1809.35 224.869 1810.94 224.3C1812.65 223.731 1814.41 223.446 1816.23 223.446C1817.14 223.446 1817.94 223.617 1818.62 223.958C1819.42 224.186 1819.82 224.812 1819.82 225.836C1819.82 226.86 1819.36 227.828 1818.45 228.738C1817.54 229.648 1816.46 230.445 1815.21 231.128C1814.07 231.811 1812.93 232.38 1811.8 232.835C1810.66 233.29 1809.86 233.632 1809.41 233.859C1803.31 237.203 1797.04 240.092 1790.57 242.527C1788.92 243.151 1788.57 243.72 1786.57 242.527C1785.07 241.22 1783.43 243.337 1781.07 244C1779.42 244.466 1777.75 243.09 1776.07 243.5C1775.73 243.584 1773.42 244.418 1773.07 244.5C1771.59 244.855 1770.56 246.686 1769.07 247C1766.91 247.455 1763.74 249.897 1761.57 250.265C1752.25 251.846 1742.82 252.636 1733.27 252.636C1724.74 252.636 1715.98 251.953 1706.99 250.588C1698.11 249.222 1689.4 247.06 1680.87 244.101C1672.45 241.142 1664.37 237.33 1656.63 232.664C1649 227.998 1642.23 222.365 1636.32 215.765C1631.19 209.961 1626.59 203.645 1622.49 196.817C1621.04 194.406 1619.67 191.967 1618.36 189.5C1617.49 187.846 1618.07 185.5 1618.07 183.5C1618.81 179.5 1615.28 177.488 1614.07 174.5C1613.31 172.624 1610.43 171.891 1609.75 170C1607.82 164.549 1606.26 159.036 1605.08 153.459C1603.48 145.949 1602.69 138.665 1602.69 131.61Z" fill="#F7F7F7"/>
<path d="M694.211 210.093C694.211 212.483 693.642 214.588 692.504 216.409C691.366 218.23 690.001 219.823 688.408 221.189C686.814 222.44 685.164 223.522 683.457 224.432C681.75 225.342 680.385 226.082 679.36 226.651C678.336 227.22 676.971 227.789 675.264 228.358C673.443 228.927 671.508 229.439 669.46 229.894C667.411 230.35 665.363 230.748 663.315 231.089C661.266 231.317 659.445 231.431 657.852 231.431C656.942 231.431 655.974 231.488 654.95 231.601C653.926 231.715 652.959 232 652.048 232.455C651.138 232.91 650.398 233.536 649.829 234.333C649.146 235.015 648.805 235.926 648.805 237.064C648.805 240.023 649.659 242.071 651.366 243.209C653.073 244.233 654.95 244.745 656.999 244.745C671.679 244.973 686.302 245.2 700.869 245.428C715.435 245.542 730.172 245.599 745.08 245.599C747.356 245.599 749.177 245.371 750.542 244.916C751.908 244.461 752.591 242.924 752.591 240.307C752.591 238.486 751.965 237.121 750.713 236.21C749.347 235.3 747.64 234.503 745.592 233.82C742.519 232.796 738.935 231.772 734.838 230.748C730.741 229.61 726.815 228.017 723.06 225.968C719.304 223.806 716.118 220.904 713.5 217.263C710.883 213.507 709.461 208.5 709.233 202.241C708.8 190.877 705.098 182.456 704.624 171.174C706.672 154.646 706.541 137.584 705.819 122.353C704.567 95.9517 703.941 69.038 703.941 41.6122C703.941 39.6776 704.169 38.0275 704.624 36.6619C705.079 35.1825 705.762 33.8169 706.672 32.5651C707.469 31.3133 708.436 30.1184 709.574 28.9804C710.712 27.8424 711.964 26.5906 713.33 25.225C713.899 24.656 714.866 23.8594 716.232 22.8352C717.597 21.6972 719.134 20.5023 720.841 19.2505C722.548 17.9987 724.368 16.69 726.303 15.3244C728.238 13.9588 730.115 12.6501 731.936 11.3983C733.643 10.3741 735.179 9.57745 736.545 9.00845C737.797 8.43945 738.992 7.98425 740.13 7.64285C741.268 7.18765 742.406 6.78935 743.544 6.44795C744.682 5.99275 745.933 5.48065 747.299 4.91165C748.323 4.57025 748.835 4.00125 748.835 3.20465C748.835 2.97705 748.778 2.69255 748.665 2.35115C748.551 1.89595 748.096 1.66835 747.299 1.66835C742.747 1.32695 737.342 1.15625 731.083 1.15625H723.742C718.052 1.15625 712.192 1.27005 706.16 1.49765C700.015 1.61145 693.187 1.66835 685.676 1.66835C684.083 1.66835 682.774 2.35115 681.75 3.71675L665.688 26.6455C665.688 26.6455 666.125 32.3459 661.188 39.1455C656.444 45.6784 652.188 44.6455 652.188 44.6455L634.603 68.6455L624.437 82.6455L611.188 100.892L599.85 116.505L589.582 130.646C589.582 130.646 589.582 133.646 587.688 139.146C585.602 145.2 580.505 143.146 580.505 143.146L562.26 168.272C560.781 170.206 559.188 171.174 557.481 171.174C555.546 171.174 554.579 170.206 554.579 168.272V32.053C554.579 28.5252 555.205 25.6802 556.456 23.518C557.708 21.242 559.87 19.3643 562.943 17.8849C566.016 16.4055 570.169 15.1537 575.404 14.1295C580.525 12.9915 586.955 11.7966 594.693 10.5448C597.993 10.0896 600.099 9.57745 601.009 9.00845C601.919 8.32565 602.375 7.07385 602.375 5.25305C602.375 4.45645 602.09 3.83055 601.521 3.37535C600.952 2.92015 600.269 2.63565 599.473 2.52185C598.676 2.29425 597.823 2.18045 596.912 2.18045C596.002 2.06665 595.262 2.00975 594.693 2.00975H583.427C578.989 2.00975 573.754 2.29425 567.723 2.86325C561.577 3.43225 554.408 3.71675 546.214 3.71675C543.142 3.71675 539.273 3.60295 534.607 3.37535C529.941 3.03395 525.446 2.86325 521.121 2.86325C519.414 2.86325 517.935 2.92015 516.683 3.03395C515.431 3.03395 514.237 3.09085 513.099 3.20465C511.961 3.31845 510.823 3.48915 509.685 3.71675C508.433 3.94435 507.01 4.22885 505.417 4.57025C502.913 5.25305 501.662 6.44795 501.662 8.15495C501.662 9.86195 502.743 10.9431 504.905 11.3983C511.05 11.8535 516.342 12.7639 520.78 14.1295C525.218 15.3813 528.917 17.3728 531.876 20.104C534.721 22.7214 536.883 26.1923 538.362 30.5167C539.842 34.7273 540.695 40.0759 540.923 46.5625L541.605 60.3892C542.516 76.3212 543.256 90.3755 543.825 102.552C544.28 114.615 544.678 125.71 545.019 135.839C545.361 145.853 545.588 155.298 545.702 164.175C545.816 172.937 545.873 182.041 545.873 191.487V201.558C545.873 204.517 545.873 207.76 545.873 211.288C545.759 214.702 545.702 218.571 545.702 222.896V237.064C545.702 238.088 546.044 239.51 546.726 241.331C547.295 243.038 548.32 243.892 549.799 243.892C551.62 243.892 553.27 243.323 554.749 242.185C556.115 240.933 557.822 238.828 559.87 235.869L584.053 201.558L588.688 185.646L595.901 184.749L599.85 179.146L618.528 152.646L650.688 109.146C650.688 109.146 650.688 102.552 654.688 93.6455C656.834 88.866 666.688 87.6455 666.688 87.6455L687.042 55.4389C688.18 54.1871 688.977 53.2198 689.432 52.537C689.773 51.8542 690.57 51.5128 691.822 51.5128C692.846 51.5128 693.529 52.1387 693.87 53.3905C694.098 54.6423 694.211 55.8941 694.211 57.1459V210.093Z" fill="#F7F7F7"/>
<path d="M1229.67 63.9893C1229.67 58.2993 1228.76 52.5524 1226.94 46.7486C1225.01 40.9448 1219.03 44.12 1215.85 38.999C1212.66 33.7642 1212.37 20.4039 1208.16 16.1933C1203.84 11.8689 1199.29 8.39796 1194.51 5.78056C1189.96 3.16316 1185.35 1.56996 1180.68 1.00096C1175.9 0.431961 1170.78 0.147461 1165.32 0.147461C1159.17 0.147461 1153.14 0.887161 1147.22 2.36656C1141.31 3.73216 1135.56 5.89436 1129.98 8.85316C1129.53 9.19456 1128.67 9.76357 1127.42 10.5602C1126.17 11.3568 1124.8 12.3241 1123.33 13.4621C1121.73 14.6001 1120.14 15.795 1118.55 17.0468C1116.95 18.1848 1115.53 19.2659 1114.28 20.2901C1113.82 20.7453 1113.42 20.9729 1113.08 20.9729C1112.97 20.9729 1112.69 20.7453 1112.23 20.2901C1111.89 19.8349 1111.49 19.1521 1111.04 18.2417C1110.47 17.2175 1109.9 16.1933 1109.33 15.1691C1108.76 14.0311 1108.25 13.0069 1107.79 12.0965C1107.22 11.0723 1106.82 10.3895 1106.6 10.0481C1106.37 9.47906 1106.08 8.96696 1105.74 8.51176C1105.29 8.05656 1105 7.82896 1104.89 7.82896C1104.89 7.71516 1104.66 7.65826 1104.21 7.65826C1103.52 7.65826 1103.01 7.94276 1102.67 8.51176C1102.33 8.96696 1102.1 9.53596 1101.99 10.2188C1101.76 10.9016 1101.65 11.6413 1101.65 12.4379C1101.65 13.1207 1101.65 13.6897 1101.65 14.1449V15.3398C1101.65 15.5674 1101.7 16.0226 1101.82 16.7054C1101.82 17.3882 1101.87 18.1848 1101.99 19.0952C1102.1 19.8918 1102.22 20.6315 1102.33 21.3143C1102.33 21.9971 1102.39 22.4523 1102.5 22.6799V64.8428C1102.5 65.7532 1102.9 66.3791 1103.7 66.7205C1104.49 67.0619 1105.17 67.2326 1105.74 67.2326C1107 67.2326 1107.73 67.005 1107.96 66.5498C1108.19 65.9808 1108.53 65.0135 1108.99 63.6479C1110.24 60.6891 1111.09 57.6734 1111.55 54.6008C1111.89 51.4144 1112.69 48.1711 1113.94 44.8709C1115.19 41.1155 1117.29 37.0756 1120.25 32.7512C1123.21 28.313 1126.63 24.2162 1130.49 20.4608C1134.36 16.7054 1138.4 13.5759 1142.61 11.0723C1146.83 8.56866 1150.87 7.31686 1154.73 7.31686C1161.9 7.31686 1167.42 7.82896 1171.29 8.85316C1177.1 10.5602 1181.99 13.3483 1185.97 17.2175C1189.84 20.9729 1193.43 25.2404 1196.73 30.02C1197.64 31.3856 1198.49 33.1495 1199.29 35.3117C1200.08 37.3601 1200.77 39.5792 1201.34 41.969C1201.79 44.245 1202.19 46.4641 1202.53 48.6263C1202.76 50.7885 1202.87 52.5524 1202.87 53.918C1202.87 59.3804 1201.73 64.3307 1199.46 68.7689C1197.07 73.2071 1194 77.1901 1190.24 80.7179C1186.48 84.1319 1182.27 87.2045 1177.61 89.9357C1172.83 92.5531 1168.05 94.8291 1163.27 96.7637C1159.17 98.4707 1154.96 100.121 1150.64 101.714C1146.2 103.307 1141.87 104.957 1137.66 106.664C1133.34 108.371 1129.24 110.249 1125.37 112.297C1121.39 114.346 1122.81 123.882 1119.74 126.499C1115.87 129.572 1107.11 126.181 1103.35 130.733C1099.6 135.171 1096.24 140.065 1093.28 145.413C1090.21 150.648 1087.76 156.11 1085.94 161.8C1084.12 167.49 1083.21 173.067 1083.21 178.529C1083.21 189.112 1085.09 198.672 1088.84 207.207C1092.49 215.742 1101.36 218.757 1107.96 224.789C1114.45 230.706 1118.38 239.583 1127.25 242.883C1136.13 246.069 1145.69 247.663 1155.93 247.663C1161.96 247.663 1167.82 247.378 1173.51 246.809C1179.09 246.126 1184.44 244.988 1189.56 243.395C1194.68 241.802 1198.32 232.925 1202.87 230.08C1207.42 227.235 1212.94 230.251 1217.04 225.813C1217.5 225.244 1218.12 224.903 1218.92 224.789C1219.6 224.675 1220.17 224.618 1220.62 224.618C1222.56 224.618 1223.92 225.13 1224.72 226.154C1225.52 227.179 1226.2 228.373 1226.77 229.739C1227.23 230.991 1227.79 232.129 1228.48 233.153C1229.16 234.177 1230.35 234.689 1232.06 234.689L1227.62 187.747C1227.4 186.267 1227.23 184.504 1227.11 182.455C1227 180.407 1226.71 179.041 1226.26 178.358C1225.92 176.765 1225.29 175.969 1224.38 175.969C1223.01 175.969 1222.05 176.822 1221.48 178.529C1220.8 180.464 1220.23 182.398 1219.77 184.333C1219.32 186.154 1218.92 187.974 1218.58 189.795C1218.23 191.616 1217.89 193.323 1217.55 194.916C1217.1 196.509 1216.53 197.932 1215.85 199.184C1213.23 203.85 1210.72 208.003 1208.33 211.645C1205.83 215.286 1203.1 218.644 1200.14 221.716C1197.07 224.789 1193.54 227.577 1189.56 230.08C1185.57 232.584 1180.74 234.917 1175.05 237.079C1171.52 238.331 1168.16 239.071 1164.98 239.298C1161.79 239.412 1158.89 239.469 1156.27 239.469C1153.08 239.469 1149.9 238.9 1146.71 237.762C1143.53 236.51 1139.71 234.632 1135.27 232.129C1128.79 228.26 1123.61 223.651 1119.74 218.302C1115.87 212.84 1113.94 206.012 1113.94 197.818C1113.94 192.014 1109.39 185.006 1111.55 179.999C1113.6 174.992 1122.07 171.929 1125.72 167.604C1130.95 161.8 1135.96 157.305 1140.74 154.119C1145.52 150.819 1150.24 148.201 1154.91 146.267C1159.46 144.332 1164.01 142.682 1168.56 141.316C1173.11 139.951 1177.78 138.244 1182.56 136.195C1187.22 134.147 1191.83 123.913 1196.73 120.499C1201.62 117.085 1206.91 119.808 1212.26 113.663C1223.87 100.007 1229.67 83.4491 1229.67 63.9893Z" fill="#F7F7F7"/>
<path d="M374.689 221.701V205.999V185.499V160.999L381.188 130.499L374.689 101.499V74.9991V55.4991V29.3216C374.689 24.542 373.835 20.9573 372.128 18.5675C370.421 16.0639 368.259 14.3 365.641 13.2758C363.138 12.1378 360.407 11.5119 357.448 11.3981C354.489 11.2843 351.701 11.1705 349.084 11.0567C346.58 10.8291 344.475 10.3739 342.768 9.69106C341.061 9.00826 340.207 7.58575 340.207 5.42355C340.207 3.94415 340.89 3.03375 342.256 2.69235C343.735 2.23715 345.101 2.00955 346.352 2.00955H355.912C358.757 2.00955 361.317 2.12335 363.593 2.35095C365.983 2.46475 368.202 2.63545 370.25 2.86305C372.413 3.09065 374.575 3.31825 376.737 3.54585C379.013 3.65965 381.517 3.71655 384.248 3.71655C389.824 3.71655 394.717 3.60275 398.928 3.37515C403.139 3.03375 407.179 2.69235 411.048 2.35095C414.917 2.00955 418.786 1.72505 422.655 1.49745C426.525 1.15605 430.849 0.985352 435.629 0.985352H447.065C448.659 0.985352 449.967 1.32675 450.992 2.00955C452.016 2.57855 452.812 2.91995 453.381 3.03375C453.837 4.28555 454.121 4.96835 454.235 5.08215C454.349 5.19595 454.406 5.70805 454.406 6.61845C454.406 7.87025 453.381 8.89445 451.333 9.69106C449.398 10.4877 447.122 11.1705 444.505 11.7395C442.001 12.1947 439.441 12.593 436.823 12.9344C434.206 13.162 432.328 13.4465 431.19 13.7879C429.37 14.1293 427.435 14.4707 425.387 14.8121C423.338 15.0397 421.46 15.4949 419.753 16.1777C418.046 16.7467 416.624 17.6571 415.486 18.9089C414.348 20.0469 413.779 21.697 413.779 23.8592V35.4292C413.779 35.4292 408.614 45.8112 408.188 52.9991C407.663 61.8483 411.688 71.4991 411.688 71.4991L413.779 78.4991V125.999V153.499V180.999L408.188 197.499L413.779 226.651C413.779 229.041 414.632 230.918 416.339 232.284C418.16 233.536 420.379 234.503 422.997 235.186C425.614 235.755 428.459 236.153 431.532 236.381C434.718 236.608 437.62 236.893 440.237 237.234C442.855 237.576 445.017 238.145 446.724 238.941C448.545 239.624 449.455 240.762 449.455 242.355C449.455 243.607 449.114 244.404 448.431 244.745C447.748 245.086 447.122 245.371 446.553 245.599C444.96 246.054 443.026 246.452 440.75 246.793C438.474 247.135 436.482 247.306 434.775 247.306C430.678 247.306 426.923 247.192 423.509 246.964C420.095 246.737 416.795 246.509 413.608 246.281C410.422 246.054 407.235 245.826 404.049 245.599C400.863 245.371 397.392 245.257 393.636 245.257C391.816 245.257 389.255 245.314 385.955 245.428C382.768 245.542 382.443 238.714 378.688 238.941C375.046 239.055 368.259 246.168 364.617 246.281C360.976 246.395 357.846 246.452 355.229 246.452H341.743C341.174 246.452 340.378 246.168 339.354 245.599C338.329 245.03 337.817 244.119 337.817 242.867C337.817 240.591 338.785 239.226 340.719 238.771C343.223 238.088 345.442 237.576 347.377 237.234C349.425 236.779 351.53 236.381 353.692 236.039C355.855 235.584 358.244 235.129 360.862 234.674C363.479 234.219 366.723 233.593 370.592 232.796C372.526 232.227 373.664 230.975 374.006 229.041C374.461 227.106 374.689 224.659 374.689 221.701Z" fill="#D9894A"/>
<path d="M935.029 29.3216V49.9763V63.9877V77.9991L927.188 101.499L931.188 111.999L935.029 121.999V141.499V161.499V181.999V206.999L929.688 218.999L935.029 227.334C935.029 229.951 936.451 231.943 939.296 233.308C942.255 234.674 945.612 235.698 949.367 236.381C953.237 237.064 957.049 237.576 960.804 237.917C964.56 238.145 967.291 238.429 968.998 238.771C970.022 240.022 970.591 240.933 970.705 241.502C970.933 241.957 971.046 242.697 971.046 243.721C971.046 244.745 970.705 245.599 970.022 246.281C969.453 246.964 968.714 247.476 967.803 247.818C966.893 248.273 965.868 248.614 964.73 248.842C963.706 249.069 962.739 249.183 961.829 249.183C959.553 249.183 956.082 248.956 951.416 248.5C946.75 248.045 941.8 247.533 936.565 246.964C931.444 246.509 926.437 246.054 921.543 245.599C916.764 245.143 913.065 242.697 910.448 242.697C906.01 242.697 907.784 237.803 903.688 237.917C899.591 238.031 889.281 245.655 884.843 246.452C883.932 246.452 882.453 246.623 880.405 246.964C878.47 247.419 876.308 247.875 873.918 248.33C871.528 248.785 869.138 249.183 866.749 249.525C864.473 249.98 862.595 250.207 861.116 250.207C859.978 250.207 859.124 249.695 858.555 248.671C857.986 247.761 857.702 247.021 857.702 246.452C857.702 244.973 858.498 243.778 860.091 242.867C861.798 241.957 863.221 241.388 864.359 241.16C865.042 240.819 866.293 240.421 868.114 239.965C870.049 239.51 872.154 239.055 874.43 238.6C876.706 238.031 878.868 237.519 880.917 237.064C883.079 236.495 884.786 235.982 886.038 235.527C887.859 235.072 889.452 234.617 890.817 234.162C892.183 233.593 893.321 232.91 894.231 232.113C895.142 231.203 895.825 230.065 896.28 228.699C896.735 227.22 896.963 225.342 896.963 223.066V211.999V199.499V183.499L899.688 171.499L903.688 159.499L896.963 131.999V111.999V96.4991V80.4991L899.688 67.9991L903.688 55.6094L896.963 43.487V36.1496C896.963 35.2392 896.906 34.2719 896.792 33.2477C896.678 32.1097 896.45 31.0855 896.109 30.1751C895.768 29.2647 895.256 28.525 894.573 27.956C893.89 27.387 892.923 27.1025 891.671 27.1025H853.434C848.313 27.1025 843.932 27.5577 840.29 28.4681C836.649 29.2647 833.291 30.5734 830.219 32.3942C826.463 34.3288 822.651 36.9462 818.782 40.2464C815.027 43.5466 812.125 47.0175 810.076 50.6591C809.735 51.2281 809.393 52.0247 809.052 53.0489C808.824 54.0731 808.483 55.0973 808.028 56.1215C807.573 57.1457 807.061 58.0561 806.492 58.8527C805.923 59.6493 805.24 60.0476 804.443 60.0476C803.988 60.0476 803.476 59.7062 802.907 59.0234C802.338 58.3406 801.769 57.4871 801.2 56.4629C800.631 55.3249 800.119 54.13 799.664 52.8782C799.322 51.5126 799.151 50.2039 799.151 48.9521C799.151 46.4485 799.664 43.8311 800.688 41.0999C801.826 38.3687 803.191 35.4668 804.785 32.3942C806.378 29.3216 808.085 26.0214 809.906 22.4936C811.726 18.852 813.376 14.869 814.856 10.5446V7.47195C814.856 6.67535 815.027 5.82185 815.368 4.91145C815.937 3.88725 816.734 3.31825 817.758 3.20445C818.896 2.97685 820.091 2.86305 821.342 2.86305C822.367 2.86305 823.22 3.20445 823.903 3.88725C824.586 4.45625 825.269 5.13905 825.951 5.93565C826.634 6.73225 827.374 7.58575 828.17 8.49615C829.081 9.29276 830.162 9.86176 831.414 10.2032C832.779 10.5446 835.397 10.9998 839.266 11.5688C843.135 12.024 848.427 12.4792 855.141 12.9344C861.969 13.3896 870.276 13.7879 880.063 14.1293C889.85 14.4707 901.401 14.6414 914.715 14.6414C917.902 14.6414 921.543 14.5845 925.64 14.4707C929.737 14.2431 933.948 14.0155 938.272 13.7879C942.71 13.5603 947.091 13.3896 951.416 13.2758C955.74 13.0482 959.723 12.9344 963.365 12.9344C966.21 12.9344 968.77 13.0482 971.046 13.2758C973.322 13.5034 975.769 13.8448 978.386 14.3C979.752 14.5276 981.232 14.7552 982.825 14.9828C984.418 15.2104 986.011 15.438 987.604 15.6656C989.198 15.7794 990.677 15.8932 992.042 16.007C993.408 16.1208 994.489 16.1777 995.286 16.1777C997.448 16.1777 998.529 14.9828 998.529 12.593C998.529 11.3412 998.927 10.1463 999.724 9.00826C1000.75 7.75645 1002.11 6.27705 1003.82 4.57005C1005.53 2.86305 1007.01 2.00955 1008.26 2.00955C1009.17 2.00955 1010.14 2.63545 1011.16 3.88725C1012.3 5.13905 1013.38 6.67535 1014.4 8.49615C1015.54 10.2032 1016.57 11.9671 1017.48 13.7879C1018.5 15.4949 1019.35 16.8605 1020.04 17.8847C1020.83 19.7055 1014.06 24.4851 1014.4 27.1025C1014.75 29.6061 1020.21 33.2477 1022.94 30.3458C1023.39 31.37 1024.36 33.0201 1025.84 35.2961C1027.43 37.5721 1029.03 40.0188 1030.62 42.6362C1032.21 45.1398 1033.64 47.5865 1034.89 49.9763C1036.25 52.3661 1036.94 54.2438 1036.94 55.6094C1036.94 58.5682 1035.63 60.0476 1033.01 60.0476C1031.42 60.0476 1029.48 59.1372 1027.21 57.3164C1025.04 55.4956 1022.71 53.3903 1020.21 51.0005C1017.82 48.6107 1015.37 46.2209 1012.87 43.8311C1010.36 41.3275 1008.03 39.3929 1005.87 38.0273C1004.39 37.1169 1002.34 36.0927 999.724 34.9547C997.22 33.8167 994.546 32.6787 991.701 31.5407C988.856 30.4027 986.068 29.4354 983.337 28.6388C980.606 27.8422 978.273 27.3301 976.338 27.1025C973.265 26.5335 970.079 26.249 966.779 26.249C963.479 26.1352 960.292 26.0783 957.22 26.0783H947.49C947.148 26.0783 946.295 26.1352 944.929 26.249C943.677 26.3628 942.312 26.5904 940.832 26.9318C939.353 27.1594 937.987 27.5008 936.736 27.956C935.598 28.2974 935.029 28.7526 935.029 29.3216Z" fill="#D9894A"/>
<path d="M1473.35 244.745L1474.69 235.499L1476.19 229.999L1473.35 221.7V213.499V200.192C1473.35 199.623 1473.23 198.485 1473.01 196.778C1472.89 194.957 1472.72 193.421 1472.49 192.169C1472.49 191.942 1472.27 191.6 1471.81 191.145L1471.3 190.633C1470.5 190.633 1469.82 191.259 1469.25 192.511C1467.2 196.721 1465.5 200.135 1464.13 202.753C1462.88 205.37 1461.57 207.76 1460.2 209.922C1458.84 212.084 1457.19 214.303 1455.25 216.579C1453.43 218.742 1450.99 221.416 1447.91 224.602C1444.61 228.244 1440.52 231.487 1435.62 234.332C1430.84 237.063 1425.72 239.396 1420.26 241.331C1414.91 243.266 1409.51 244.745 1404.04 245.769C1398.58 246.68 1393.52 247.135 1388.85 247.135C1384.41 247.135 1379.98 246.736 1375.54 245.94C1371.21 245.029 1367.91 243.948 1365.64 242.697C1361.65 240.534 1360.19 238.999 1359.69 233.999C1359.69 232.499 1355.72 227.839 1354.19 226.999C1352.31 225.974 1348 227.998 1346.69 226.309C1344.3 223.237 1342.25 220.107 1340.54 216.921C1338.95 213.734 1337.76 210.719 1336.96 207.874C1336.28 205.825 1335.65 202.98 1335.08 199.339C1334.63 195.697 1334.17 191.714 1333.72 187.39C1333.37 183.065 1333.03 178.627 1332.69 174.075C1332.46 169.409 1332.24 165.085 1332.01 161.102C1331.89 157.005 1331.78 153.42 1331.67 150.348C1331.67 147.275 1331.67 145.17 1331.67 144.032V136.658V129.284V114.535L1337.69 103.999L1331.67 92.0353V74.0353V60.0353V42.5353V26.0353V14.1291C1331.67 12.5359 1330.59 11.7393 1328.42 11.7393H1295.82C1294.11 11.7393 1293.26 10.2599 1293.26 7.30113C1293.26 4.79753 1294.11 3.54573 1295.82 3.54573H1335.08L1349.25 7.30113L1366.49 3.54573C1367.17 3.54573 1367.97 3.83023 1368.88 4.39923C1369.79 4.85443 1370.25 5.82173 1370.25 7.30113V18.499L1366.49 31.499L1368.88 37.499L1370.25 40.999V54.999V71.499V83.499V146.999V156.152C1370.25 159.563 1365.45 165.971 1365.64 169.125C1365.91 173.734 1369.58 177.941 1370.25 181.999C1371.11 187.291 1374 189.114 1375.54 193.469C1377.53 199.115 1380.09 203.974 1383.22 208.044C1390.84 217.945 1401.71 222.895 1415.82 222.895C1417.64 222.895 1419.52 222.668 1421.46 222.213C1423.39 221.757 1425.27 221.245 1427.09 220.676C1429.02 219.993 1430.79 219.311 1432.38 218.628C1434.09 217.831 1435.62 217.092 1436.99 216.409C1441.77 213.905 1445.92 211.288 1449.45 208.557C1452.98 205.712 1456.05 202.696 1458.67 199.509C1461.4 196.209 1463.68 192.625 1465.5 188.755C1467.32 184.886 1468.85 180.619 1470.11 175.953C1470.67 174.018 1471.13 171.742 1471.47 169.125C1471.93 166.507 1472.27 163.776 1472.49 160.931C1472.84 157.972 1473.06 155.014 1473.18 152.055C1473.29 149.096 1473.35 146.422 1473.35 144.032V135.999L1476.69 121.999L1478.69 114.999L1473.35 108.499V99.499V90.999V78.999V71.499V60.499V50.999V41.999V27.999V14.9826C1471.87 13.048 1469.25 11.8531 1465.5 11.3979C1461.85 10.8289 1458.1 10.4306 1454.23 10.203C1452.86 10.203 1451.5 10.203 1450.13 10.203C1448.77 10.0892 1447.06 10.0323 1445.01 10.0323C1443.08 10.0323 1440.52 9.97543 1437.33 9.86163C1434.26 9.74783 1430.39 9.69093 1425.72 9.69093C1423.45 9.69093 1422.31 8.38223 1422.31 5.76483C1422.31 4.62683 1422.65 3.60263 1423.33 2.69223C1424.02 1.66803 1425.55 1.15593 1427.94 1.15593L1509.02 1.66803C1510.05 1.66803 1510.85 2.23703 1511.41 3.37503C1511.98 4.51303 1512.27 5.82173 1512.27 7.30113L1511.25 18.499L1507.69 27.999L1509.02 35.999L1511.82 50.999L1511.66 65.999L1511.45 85.999L1511.25 105.999L1511.07 122.999L1510.9 139.499L1510.65 163.499L1508.19 170.499V180.499L1510.34 193.499L1510.21 206.499L1510.05 221.7C1510.73 222.611 1512.1 223.18 1514.15 223.407C1516.31 223.635 1518.19 223.749 1519.78 223.749C1525.01 223.749 1530.08 223.294 1534.97 222.383C1539.98 221.359 1545.33 220.847 1551.02 220.847C1552.95 220.847 1553.92 221.928 1553.92 224.09C1553.92 225.228 1553.24 226.196 1551.87 226.992C1550.5 227.675 1548.85 228.301 1546.92 228.87C1545.1 229.325 1543.11 229.723 1540.95 230.065C1538.9 230.406 1537.13 230.748 1535.65 231.089C1530.31 232.341 1524.67 233.649 1518.75 235.015C1512.84 236.267 1507.03 237.917 1501.34 239.965C1499.75 240.534 1497.76 241.331 1495.37 242.355C1493.09 243.266 1490.76 244.176 1488.37 245.086C1485.98 245.997 1483.76 246.793 1481.71 247.476C1479.66 248.159 1478.13 248.5 1477.1 248.5C1476.19 248.5 1475.34 248.216 1474.54 247.647C1473.75 246.964 1473.35 245.997 1473.35 244.745Z" fill="#D9894A"/>
<path d="M1919.32 221.701V204.499L1921.69 199.999L1923.69 195.999L1925.69 187.499L1923.69 175.499L1921.5 170.249L1919.32 164.999V92.999L1920.69 86.499L1922.19 78.999V72.999L1920.32 67.499L1919.32 58.499V29.3216C1919.32 24.542 1921.89 17.8888 1920.19 15.499C1918.48 12.9954 1915.8 10.7153 1913.19 9.69106C1910.68 8.55305 1905.65 10.6128 1902.69 10.499C1899.73 10.3852 1896.33 11.1705 1893.71 11.0567C1891.21 10.8291 1889.11 10.3739 1887.4 9.69106C1885.69 9.00826 1884.84 7.58575 1884.84 5.42355C1884.84 3.94415 1885.52 3.03375 1886.89 2.69235C1888.37 2.23715 1889.73 2.00955 1890.98 2.00955H1900.54C1903.39 2.00955 1905.95 2.12335 1908.22 2.35095C1910.61 2.46475 1912.83 2.63545 1914.88 2.86305C1917.04 3.09065 1919.21 3.31825 1921.37 3.54585C1923.64 3.65965 1926.15 3.71655 1928.88 3.71655C1934.45 3.71655 1939.35 3.60275 1943.56 3.37515C1947.77 3.03375 1951.81 2.69235 1955.68 2.35095C1959.55 2.00955 1963.42 1.72505 1967.29 1.49745C1971.16 1.15605 1975.48 0.985352 1980.26 0.985352H1991.7C1993.29 0.985352 1994.6 1.32675 1995.62 2.00955C1996.65 2.57855 1997.44 2.91995 1998.01 3.03375C1998.47 4.28555 1998.75 4.96835 1998.87 5.08215C1998.98 5.19595 1999.04 5.70805 1999.04 6.61845C1999.04 7.87025 1998.01 8.89445 1995.96 9.69106C1994.03 10.4877 1991.75 11.1705 1989.14 11.7395C1986.63 12.1947 1984.07 12.593 1981.45 12.9344C1978.84 13.162 1976.96 13.4465 1975.82 13.7879C1974 14.1293 1972.07 14.4707 1970.02 14.8121C1967.97 15.0397 1966.09 15.4949 1964.38 16.1777C1962.68 16.7467 1961.25 17.6571 1960.12 18.9089C1958.98 20.0469 1958.41 21.697 1958.41 23.8592V29.999L1956.19 34.999V41.499L1957.69 44.999L1958.41 47.999V104.999C1958.41 104.999 1958.69 110.499 1958.41 114.499C1958.15 118.174 1953.49 118.403 1952.69 121.999C1951.95 125.289 1954.19 130.499 1954.19 130.499L1956.69 134.499L1958.41 136.499V141.499V226.651C1958.41 229.041 1959.26 230.918 1960.97 232.284C1962.79 233.536 1965.01 234.503 1967.63 235.186C1970.24 235.755 1973.09 236.153 1976.16 236.381C1979.35 236.608 1982.25 236.893 1984.87 237.234C1987.49 237.576 1989.65 238.145 1991.35 238.941C1993.18 239.624 1994.09 240.762 1994.09 242.355C1994.09 243.607 1993.74 244.404 1993.06 244.745C1992.38 245.086 1991.75 245.371 1991.18 245.599C1989.59 246.054 1987.66 246.452 1985.38 246.793C1983.1 247.135 1981.11 247.306 1979.41 247.306C1975.31 247.306 1971.55 247.192 1968.14 246.964C1964.73 246.737 1961.43 246.509 1958.24 246.281C1955.05 246.054 1951.87 245.826 1948.68 245.599C1945.49 245.371 1946.76 242.46 1942.19 240.499C1938.69 238.999 1933.49 244.385 1930.19 244.499C1927 244.613 1923.93 245.712 1920.17 245.94C1916.53 246.054 1912.89 246.168 1909.25 246.281C1905.61 246.395 1902.48 246.452 1899.86 246.452H1886.37C1885.81 246.452 1885.01 246.168 1883.98 245.599C1882.96 245.03 1882.45 244.119 1882.45 242.867C1882.45 240.591 1883.42 239.226 1885.35 238.771C1887.85 238.088 1890.07 237.576 1892.01 237.234C1894.06 236.779 1896.16 236.381 1898.32 236.039C1900.49 235.584 1902.88 235.129 1905.49 234.674C1908.11 234.219 1911.35 233.593 1915.22 232.796C1917.16 232.227 1918.3 230.975 1918.64 229.041C1919.09 227.106 1919.32 224.659 1919.32 221.701Z" fill="#D9894A"/>
<path d="M51.8001 309.407V181.525C51.8001 181.525 57.5556 165.006 57.5556 156.04C57.5556 147.433 51.8001 137.902 51.8001 137.902V52.0351C51.8001 47.1372 51.4931 42.2392 50.8792 37.3413C50.4187 32.2903 49.6513 27.6984 48.577 23.5658C47.6561 20.8107 45.8143 18.7444 43.0516 17.3668C40.2889 15.9893 37.0658 14.9944 33.3823 14.3821C29.8522 13.7699 26.0919 13.3872 22.1014 13.2342C18.2643 13.0811 14.6575 12.775 11.2809 12.3158C8.05779 11.8566 5.37186 11.1679 3.22312 10.2495C1.07437 9.17806 0 7.49439 0 5.19847C0 4.28011 0.306963 3.20868 0.92089 1.98419C1.6883 0.759705 2.99289 0.147461 4.83467 0.147461H13.1227C20.0294 0.147461 25.9384 0.300522 30.8498 0.606644C35.7612 0.759705 40.3657 0.989296 44.6632 1.29542C48.9607 1.44848 53.2581 1.60154 57.5556 1.7546C61.8531 1.90766 66.8413 1.98419 72.5201 1.98419C76.5106 1.98419 80.3477 1.90766 84.0312 1.7546C87.7148 1.60154 91.3983 1.52501 95.0819 1.52501C98.9189 1.37195 102.833 1.21889 106.823 1.06583C110.814 0.912766 115.188 0.836235 119.946 0.836235H134.91C136.599 0.836235 138.057 0.989296 139.285 1.29542C140.666 1.60154 141.357 2.7495 141.357 4.73929C141.357 7.18827 140.282 8.94847 138.133 10.0199C135.985 11.0913 133.299 11.8566 130.076 12.3158C127.006 12.6219 123.553 12.9281 119.716 13.2342C116.032 13.3872 112.579 13.8464 109.356 14.6117C106.286 15.224 103.677 16.3719 101.528 18.0556C99.3794 19.5862 98.305 21.9587 98.305 25.1729V164.535C99.5329 164.535 100.991 164.152 102.679 163.387C104.368 162.469 106.056 161.321 107.744 159.943C109.432 158.566 111.044 157.035 112.579 155.351C114.267 153.668 115.725 151.984 116.953 150.3C119.102 147.239 121.02 144.484 122.709 142.035C124.397 139.433 126.008 137.061 127.543 134.918C129.232 132.622 130.766 130.479 132.148 128.489C133.683 126.346 135.294 124.203 136.982 122.061C146.345 109.663 155.63 97.8004 164.839 86.4739C174.202 75.1474 183.871 63.5913 193.847 51.8056C196.917 47.826 199.373 43.8464 201.214 39.8668C203.21 35.7341 204.207 31.4484 204.207 27.0097C204.207 24.7138 203.133 22.3413 200.984 19.8923C198.836 17.2903 196.38 15.6066 193.617 14.8413C191.775 14.2291 189.55 13.7699 186.941 13.4638C184.485 13.0046 181.876 12.6219 179.113 12.3158C176.35 12.0097 173.588 11.7036 170.825 11.3974C168.216 10.9383 165.837 10.326 163.688 9.56071C162.46 9.25459 161.539 8.64235 160.926 7.72398C160.312 6.80561 160.005 5.73419 160.005 4.5097C160.005 3.89746 160.081 3.43827 160.235 3.13215C160.542 2.82603 160.849 2.44338 161.156 1.98419C161.616 1.67807 162.307 1.44848 163.228 1.29542C164.302 1.14236 165.376 1.06583 166.451 1.06583C167.525 0.912766 168.523 0.836235 169.444 0.836235C170.365 0.836235 170.979 0.836235 171.286 0.836235C176.964 0.836235 182.029 0.989296 186.48 1.29542C191.085 1.44848 195.459 1.7546 199.603 2.21378C203.747 2.51991 207.737 2.82603 211.574 3.13215C215.412 3.28521 219.479 3.36174 223.776 3.36174C231.143 3.36174 238.511 2.97909 245.878 2.21378C253.245 1.29542 259.461 0.836235 264.526 0.836235H281.102C284.939 0.836235 287.855 1.52501 289.85 2.90256C291.231 3.66786 291.922 4.43317 291.922 5.19847C291.922 5.65766 291.615 6.04031 291.001 6.34643C284.862 8.79541 278.493 10.9383 271.893 12.775C265.447 14.6117 259.077 16.8311 252.784 19.4331C250.943 20.1985 248.947 21.1933 246.799 22.4178C244.803 23.6423 242.731 25.0199 240.583 26.5505C238.434 27.928 236.439 29.3821 234.597 30.9127C232.755 32.2903 231.143 33.6678 229.762 35.0454C224.544 40.0964 220.246 44.229 216.87 47.4433C213.493 50.6576 210.577 53.4892 208.121 55.9382C205.819 58.3872 203.67 60.6066 201.675 62.5964C199.833 64.5861 197.761 66.8055 195.459 69.2545C191.775 73.3872 188.169 77.4433 184.638 81.4229C181.262 85.2494 177.732 89.229 174.048 93.3616C170.518 97.4943 166.835 101.857 162.998 106.448C159.16 110.887 155.016 115.709 150.566 120.913C148.417 123.055 146.422 125.122 144.58 127.112C142.891 128.948 142.047 131.091 142.047 133.54C142.047 134.152 142.815 135.606 144.35 137.902C146.038 140.045 148.11 142.724 150.566 145.938C153.021 148.999 155.707 152.367 158.623 156.04C161.693 159.561 164.609 163.004 167.372 166.372C170.134 169.739 172.59 172.8 174.739 175.555C177.041 178.31 178.653 180.3 179.574 181.525C188.015 190.708 194.688 204.499 203.517 209.535C211.037 218.872 219.018 228.591 227.46 238.693C229.916 241.601 233.215 245.428 237.359 250.173C241.503 254.918 241.887 267.836 246.799 273.499C251.71 279.009 260.996 276.882 266.367 282.545C271.893 288.208 277.188 293.565 282.253 298.616C287.471 303.514 292.306 307.724 296.757 311.244C301.361 314.764 305.198 317.06 308.268 318.132C309.803 318.897 312.642 319.815 316.786 320.887C321.084 321.805 325.458 322.877 329.909 324.101C334.36 325.326 338.274 326.627 341.65 328.004C345.18 329.229 346.945 330.453 346.945 331.678C346.945 332.749 346.485 333.591 345.564 334.203C344.643 334.815 343.492 335.275 342.111 335.581C340.883 336.04 339.425 336.269 337.736 336.269C336.202 336.423 334.744 336.499 333.362 336.499H328.067C324.997 336.499 322.081 336.346 319.319 336.04C316.709 335.734 314.024 335.351 311.261 334.892C308.498 334.433 306.877 330.306 303.5 330C300.277 329.694 295.644 328.004 291.5 328.004L246.799 333.285C245.417 333.285 243.959 332.673 242.424 331.448C236.285 323.642 230.069 316.142 223.776 308.948C217.484 301.601 211.037 294.254 204.438 286.907C197.838 279.407 191.161 271.831 184.408 264.178C177.655 256.372 176.248 241.57 169.188 232.999C161.053 222.897 148.8 221.091 143.429 214.356C138.057 207.622 133.145 201.729 128.694 196.678C124.397 191.627 120.176 187.035 116.032 182.902C111.888 178.77 107.053 174.331 101.528 169.586C101.221 169.433 100.914 169.28 100.607 169.127C100.3 168.974 99.8398 168.897 99.2259 168.897C98.612 168.897 98.305 169.433 98.305 170.504V250.173L94.6875 261.499L98.305 273.499V303.438C98.305 307.571 99.9166 310.938 103.14 313.54C106.516 316.142 110.43 318.208 114.881 319.739C119.485 321.116 124.013 322.111 128.464 322.724C133.069 323.183 136.599 323.412 139.054 323.412C141.357 323.412 143.045 323.871 144.119 324.79C145.194 325.708 145.731 326.856 145.731 328.234C145.731 330.836 144.656 332.366 142.508 332.826C140.359 333.438 137.75 333.744 134.68 333.744C127.773 333.744 121.711 333.591 116.493 333.285C111.274 333.132 106.44 332.902 101.989 332.596C97.6911 332.29 93.3936 332.06 89.0961 331.907C84.9521 331.601 80.5011 331.448 75.7432 331.448C70.2179 331.448 64.4623 331.525 58.4765 331.678C52.4907 331.678 46.6584 331.754 40.9796 331.907C35.3008 331.907 29.8522 331.984 24.6338 332.137C19.5689 332.137 15.0412 332.137 11.0507 332.137C6.59971 332.137 4.37423 330.453 4.37423 327.086C4.37423 326.014 4.45097 324.79 4.60445 323.412C4.91141 322.035 5.75556 321.269 7.1369 321.116C9.5926 320.81 12.2785 320.581 15.1947 320.428C18.1108 320.275 20.8735 320.198 23.4827 320.198H28.5476C31.7707 320.198 35.1473 320.045 38.6774 319.739C42.3609 319.28 45.2771 318.514 47.4258 317.443C50.342 315.759 51.8001 313.081 51.8001 309.407Z" fill="#F7F7F7"/>
<path d="M241 325.594C241 319.743 245.743 315 251.594 315H385.5C385.5 315 385.688 314.863 385.992 315C386.296 315.137 386.591 315.27 386.878 315.4C390.833 317.184 397.492 320.188 397.492 320.188C397.492 320.188 406.916 321.707 412.992 321.577C417.903 321.473 425.492 320.188 425.492 320.188C425.492 320.188 432.655 316.472 434.528 315.5C435.131 315.187 435.079 315.097 435.492 315C435.875 314.91 436.5 315 436.5 315L628 315C628 315 628.615 314.934 629 315C629.642 315.109 629.577 315.288 630.5 315.729C632.615 316.738 636.545 318.544 639.5 319.5C647.198 321.99 649.488 318.627 657.5 317.5C663.249 316.691 668.163 320.228 674 317.5C674.914 317.072 676.028 316.363 676.848 315.808C677.524 315.351 677.477 315.171 678 315C678.557 314.818 679.5 315 679.5 315H1029C1029 315 1030.9 314.609 1032 315C1033.22 315.433 1034.5 317.187 1034.5 317.187C1034.5 317.187 1039.11 324.862 1044 325.5C1049.38 326.202 1054 320.687 1057.5 322C1065 322 1062.84 322.602 1067.5 322C1071.72 321.455 1077 316.68 1077 316.68C1077 316.68 1078.69 315.285 1080 315C1080.95 314.793 1082.5 315 1082.5 315L1471.5 315C1471.5 315 1472.78 314.702 1473.5 315C1474.3 315.329 1474.41 315.99 1475 316.625C1476.76 318.529 1479.5 321.5 1479.5 321.5C1479.5 321.5 1486.32 328.408 1491.5 327.5C1494.68 326.942 1497.26 323.213 1500 321.5C1502.77 319.766 1506.5 316.219 1506.5 316.219C1506.5 316.219 1507.3 315.284 1508 315C1508.9 314.632 1510.5 315 1510.5 315L1863.5 315C1863.5 315 1864.41 315 1865 315C1865.39 315 1867 316 1867 316C1867 316 1868.47 322.206 1874 323C1879.56 323.799 1889.5 319 1891 318.5C1893.5 317.667 1898.21 321.548 1903 321C1906.73 320.573 1911 318.5 1911 318.5C1911 318.5 1911.5 318 1913 316C1913.67 315.105 1914.11 315 1914.5 315C1915.09 315 1916 315 1916 315L2065.77 315C2071.62 315 2076.37 319.743 2076.37 325.594C2076.37 331.444 2071.62 336.187 2065.77 336.187H1663C1663 336.187 1659.73 334.391 1659 332.5C1658.5 331.204 1654.9 329.449 1653 328.5C1651 327.5 1643.1 329.147 1636 331.5C1632.52 332.653 1627.75 334.504 1625.23 335.5C1624.16 335.919 1624.22 336.065 1623.5 336.187C1622.92 336.286 1622 336.187 1622 336.187H1317L1304 333.768C1304 333.768 1298.21 332.69 1294.5 332C1290.5 331.255 1285.45 335.24 1283.5 334.713C1280 333.768 1277.5 333 1277.5 333C1277.5 333 1270.36 329.024 1265.5 329.5C1260.69 329.971 1258.8 332.949 1254.5 335.158C1253.72 335.56 1253.37 336.061 1252.5 336.187C1252.11 336.244 1251.5 336.187 1251.5 336.187H856C856 336.187 858 336.187 848 336.187C847.407 336.187 845.5 335 845.5 335C845.5 335 837.5 333.5 837.5 329.5C837.5 325.5 824.5 329.5 824.5 329.5L817.92 335C817.92 335 817.188 335.967 816.5 336.187C815.942 336.366 815 336.187 815 336.187H547.5C547.5 336.187 539.508 336.187 537 336.187C533.822 336.187 530.992 332.688 528.992 330.188C525.992 327.688 522.327 331.788 517.992 331.688C512.169 331.554 505 325.188 503.492 328.188C501.93 329.75 499.492 332.188 499.492 332.188C499.492 332.188 498.139 334.688 495 334.688C482.503 334.688 463.492 336.187 463.492 336.187H313.492L304.992 332.688L285.492 331.188L253.77 335.866C252.321 336.08 250.842 336.262 249.409 335.962C244.606 334.955 241 330.695 241 325.594Z" fill="#F7F7F7"/>
</svg>
